<svg width="343" height="278" viewBox="0 0 343 278" fill="none" xmlns="http://www.w3.org/2000/svg">
<g opacity="0.9">
<path d="M99.8079 70.6538C89.6098 72.3422 81.8733 73.86 76.2671 75.0715C69.3793 76.56 65.4037 83.1552 67.2491 89.9571C68.6239 95.0244 70.6075 101.982 73.4468 111.336C76.5416 121.531 78.8867 128.763 80.5906 133.779C82.6398 139.811 88.6678 143.145 94.8809 141.737C100.377 140.491 108.14 138.615 118.459 135.863C127.815 133.369 135.407 131.144 140.971 129.437C147.315 127.491 151.069 121.245 149.663 114.76C148.667 110.169 147.242 104.032 145.225 96.1092C142.812 86.6324 140.836 79.6754 139.381 74.8592C137.763 69.5021 132.909 66.1435 127.345 66.7333C121.715 67.3301 112.982 68.4727 99.8079 70.6538Z" stroke="#FFA130" stroke-width="1.2" stroke-dasharray="10 10"/>
<path d="M102.255 78.9584C93.5494 80.3998 87.2956 81.6712 83.1088 82.615C79.1806 83.5005 76.8974 87.2812 77.9259 91.1749C78.93 94.9766 80.5115 100.62 82.9703 108.72C85.5963 117.372 87.4845 123.106 88.7587 126.777C89.9524 130.217 93.4063 132.121 96.9615 131.339C101.019 130.445 107.225 128.977 115.9 126.664C123.781 124.563 129.95 122.724 134.114 121.423C137.734 120.292 139.883 116.719 139.108 113.007C138.378 109.515 137.236 104.471 135.482 97.581C133.465 89.6592 131.865 84.1442 130.775 80.6223C129.829 77.5676 127.05 75.6372 123.867 75.9421C119.857 76.3262 113.121 77.1595 102.255 78.9584Z" fill="#E9E9E9"/>
<path d="M149.074 74.3898C146.37 78.9356 135.928 71.0944 135.928 71.0944C135.928 71.0944 129.575 84.1778 124.186 81.3695C118.541 78.4281 128.626 65.7001 128.626 65.7001C128.626 65.7001 119.422 60.0875 121.422 55.6923C123.672 50.745 135.103 58.3654 135.103 58.3654C135.103 58.3654 142.39 47.9583 146.663 51.1072C151.133 54.4014 141.29 63.9841 141.29 63.9841C141.29 63.9841 151.705 69.9676 149.074 74.3898Z" fill="#FFA130"/>
</g>
<g opacity="0.5">
<path d="M162.842 220.606C156.383 218.947 151.578 217.484 148.121 216.316C143.507 214.757 141.058 210.226 142.257 205.505C142.995 202.601 144.056 198.821 145.577 194.045C147.468 188.106 149.208 183.205 150.58 179.542C152.308 174.928 156.833 172.233 161.65 173.261C165.131 174.004 169.846 175.164 175.997 176.974C181.295 178.533 185.751 179.941 189.26 181.096C194.633 182.863 197.685 188.263 196.304 193.749C195.593 196.572 194.661 200.09 193.449 204.387C191.634 210.821 190.165 215.527 189.092 218.769C187.877 222.445 184.726 224.807 180.885 224.324C177.187 223.858 171.47 222.822 162.842 220.606Z" stroke="#516CCD" stroke-width="0.9" stroke-dasharray="8.52 8.52"/>
<path d="M164.852 214.517C159.476 213.137 155.698 211.945 153.173 211.054C150.548 210.127 149.145 207.532 149.795 204.826C150.324 202.625 151.157 199.55 152.461 195.455C154.021 190.557 155.437 186.643 156.475 183.929C157.48 181.3 160.065 179.751 162.826 180.298C165.4 180.809 169.146 181.689 174.292 183.204C178.809 184.534 182.473 185.71 185.158 186.61C188.223 187.637 189.973 190.725 189.207 193.865C188.666 196.086 187.896 199.052 186.817 202.878C185.345 208.095 184.19 211.729 183.405 214.053C182.697 216.149 180.899 217.519 178.699 217.289C176.106 217.018 171.791 216.299 164.852 214.517Z" fill="#CBCBCB"/>
<path d="M197.513 180.893L197.513 180.893L197.513 180.893L197.072 181.146L196.874 180.677L196.874 180.677L196.874 180.677L196.874 180.677L196.872 180.674L196.867 180.662L196.845 180.612C196.826 180.567 196.797 180.501 196.758 180.417C196.681 180.249 196.567 180.009 196.421 179.723C196.128 179.149 195.709 178.397 195.202 177.675C194.692 176.948 194.111 176.277 193.5 175.841C192.891 175.407 192.306 175.241 191.74 175.403C191.11 175.583 190.774 176.046 190.634 176.752C190.49 177.482 190.574 178.413 190.773 179.364C190.97 180.306 191.271 181.225 191.524 181.912C191.651 182.254 191.764 182.537 191.846 182.733C191.887 182.831 191.92 182.908 191.942 182.959L191.968 183.017L191.974 183.032L191.976 183.035L191.976 183.036L191.976 183.036L191.976 183.036L192.138 183.392L191.807 183.602L191.807 183.602L191.807 183.602L191.804 183.604L191.79 183.612L191.736 183.648C191.688 183.679 191.617 183.726 191.527 183.787C191.347 183.909 191.09 184.087 190.787 184.31C190.179 184.758 189.389 185.382 188.651 186.095C187.908 186.813 187.242 187.597 186.857 188.363C186.472 189.127 186.4 189.8 186.703 190.373C187.02 190.973 187.563 191.223 188.308 191.228C189.074 191.234 189.993 190.973 190.906 190.595C191.811 190.22 192.67 189.747 193.307 189.365C193.625 189.175 193.885 189.008 194.065 188.89C194.155 188.83 194.225 188.783 194.272 188.751L194.325 188.715L194.338 188.706L194.341 188.703L194.341 188.703L194.341 188.703L194.341 188.703L194.771 188.4L195.004 188.872L195.004 188.872L195.004 188.872L195.004 188.873L195.005 188.876L195.012 188.888L195.037 188.939C195.061 188.984 195.095 189.051 195.141 189.137C195.232 189.307 195.366 189.551 195.536 189.84C195.878 190.42 196.362 191.175 196.936 191.888C197.513 192.606 198.161 193.255 198.825 193.649C199.483 194.04 200.104 194.154 200.694 193.913C201.185 193.712 201.453 193.26 201.531 192.538C201.609 191.809 201.476 190.901 201.244 189.985C201.015 189.078 200.698 188.201 200.436 187.548C200.306 187.222 200.191 186.953 200.108 186.767C200.066 186.674 200.033 186.602 200.011 186.553L199.985 186.498L199.979 186.484L199.977 186.481L199.977 186.48L199.977 186.48L199.769 186.047L200.215 185.868L200.215 185.868L200.215 185.868L200.216 185.868L200.22 185.866L200.237 185.859C200.252 185.853 200.275 185.844 200.305 185.831C200.365 185.806 200.454 185.768 200.568 185.719C200.794 185.62 201.118 185.475 201.503 185.288C202.274 184.915 203.284 184.381 204.25 183.738C205.223 183.09 206.123 182.35 206.701 181.57C207.276 180.794 207.489 180.044 207.238 179.315C207.105 178.928 206.884 178.671 206.601 178.499C206.309 178.322 205.926 178.219 205.456 178.194C204.508 178.142 203.318 178.408 202.12 178.811C200.932 179.211 199.78 179.731 198.921 180.154C198.492 180.365 198.139 180.55 197.893 180.683C197.77 180.749 197.674 180.802 197.61 180.838C197.577 180.856 197.553 180.87 197.536 180.879L197.518 180.89L197.514 180.892L197.513 180.893Z" fill="#516CCD" stroke="#516CCD" stroke-width="0.9"/>
</g>
<g opacity="0.9">
<path d="M234.183 162.631C242.167 163.782 248.744 164.407 253.673 164.745C259.824 165.166 264.925 161.016 265.725 154.903C266.247 150.917 266.867 145.508 267.551 138.255C268.236 130.993 268.65 125.467 268.897 121.33C269.283 114.898 264.761 109.628 258.361 108.882C253.915 108.363 248 107.75 240.43 107.113C232.821 106.472 226.713 106.059 222.192 105.795C216.497 105.463 211.572 108.9 210.6 114.522C209.943 118.32 209.219 123.526 208.551 130.543C207.84 138.008 207.461 143.65 207.264 147.782C206.989 153.533 210.744 158.398 216.382 159.567C220.666 160.456 226.533 161.528 234.183 162.631Z" stroke="#CCE29D" stroke-dasharray="10 10"/>
<path d="M235.289 155.215C242.042 156.189 247.414 156.646 251.132 156.86C254.65 157.062 257.579 154.69 258.068 151.201C258.489 148.196 259.02 143.787 259.618 137.443C260.219 131.066 260.534 126.526 260.696 123.378C260.885 119.7 258.289 116.682 254.635 116.232C251.256 115.815 246.402 115.288 239.843 114.736C233.412 114.194 228.452 113.876 225.06 113.692C221.805 113.515 218.972 115.471 218.36 118.673C217.816 121.517 217.179 125.734 216.6 131.82C215.989 138.232 215.714 142.799 215.596 145.895C215.472 149.183 217.625 151.966 220.839 152.669C224.04 153.369 228.779 154.277 235.289 155.215Z" fill="#E5E3E3"/>
<path d="M267.436 116.529L267.436 116.529L267.436 116.529L267.104 116.078L266.694 116.458L266.694 116.458L266.693 116.458L266.693 116.459L266.691 116.461L266.679 116.471L266.632 116.514C266.591 116.551 266.528 116.607 266.448 116.677C266.286 116.817 266.051 117.015 265.761 117.247C265.178 117.711 264.379 118.303 263.501 118.821C262.617 119.342 261.684 119.772 260.829 119.939C259.979 120.106 259.277 120.001 258.754 119.556C258.17 119.059 258.036 118.404 258.227 117.589C258.424 116.749 258.958 115.808 259.622 114.902C260.279 114.004 261.034 113.181 261.628 112.578C261.925 112.278 262.179 112.035 262.359 111.867C262.449 111.784 262.52 111.719 262.568 111.675C262.593 111.654 262.611 111.637 262.623 111.626L262.637 111.614L262.64 111.612L262.64 111.611L262.64 111.611L262.967 111.325L262.729 110.961L262.729 110.961L262.729 110.961L262.729 110.96L262.726 110.957L262.716 110.941C262.707 110.927 262.694 110.906 262.676 110.878C262.64 110.822 262.588 110.739 262.522 110.632C262.391 110.417 262.206 110.107 261.993 109.727C261.566 108.966 261.033 107.932 260.596 106.828C260.157 105.718 259.829 104.573 259.789 103.58C259.749 102.59 259.994 101.84 260.593 101.376C261.223 100.888 261.938 100.877 262.748 101.215C263.578 101.562 264.444 102.256 265.246 103.066C266.042 103.87 266.744 104.755 267.249 105.444C267.5 105.787 267.701 106.079 267.839 106.285C267.908 106.387 267.961 106.468 267.997 106.523C268.014 106.551 268.028 106.572 268.036 106.586L268.046 106.601L268.048 106.604L268.049 106.605L268.049 106.605L268.049 106.605L268.349 107.086L268.788 106.728L268.788 106.728L268.789 106.728L268.789 106.727L268.792 106.725L268.804 106.715C268.815 106.707 268.831 106.693 268.854 106.676C268.898 106.64 268.965 106.589 269.051 106.523C269.223 106.392 269.473 106.207 269.782 105.993C270.401 105.564 271.247 105.025 272.167 104.572C273.094 104.116 274.063 103.765 274.935 103.683C275.797 103.601 276.507 103.786 277.022 104.332C277.45 104.785 277.515 105.398 277.251 106.198C276.985 107.005 276.411 107.899 275.73 108.752C275.055 109.597 274.303 110.369 273.716 110.932C273.424 111.213 273.174 111.44 272.998 111.597C272.91 111.675 272.84 111.735 272.793 111.776L272.74 111.822L272.727 111.833L272.724 111.835L272.723 111.836L272.723 111.836L272.723 111.836L272.303 112.189L272.693 112.574L272.693 112.575L272.693 112.575L272.694 112.575L272.697 112.578L272.71 112.592C272.722 112.604 272.74 112.622 272.764 112.646C272.812 112.695 272.883 112.768 272.972 112.862C273.151 113.051 273.403 113.325 273.697 113.664C274.287 114.344 275.036 115.279 275.688 116.309C276.344 117.345 276.879 118.443 277.074 119.455C277.266 120.454 277.12 121.312 276.49 121.979C276.155 122.332 275.794 122.514 275.415 122.579C275.027 122.646 274.589 122.596 274.107 122.437C273.13 122.114 272.065 121.373 271.056 120.486C270.056 119.606 269.15 118.616 268.492 117.843C268.163 117.457 267.898 117.127 267.715 116.894C267.624 116.777 267.553 116.685 267.506 116.623C267.482 116.591 267.464 116.567 267.453 116.552L267.439 116.534L267.436 116.53L267.436 116.529Z" fill="#C7F070" stroke="#C7F070"/>
</g>
<rect y="112.916" width="343" height="165.085" fill="url(#paint0_linear_1423_60242)"/>
<path fill-rule="evenodd" clip-rule="evenodd" d="M223.857 22.7094C224.488 25.8971 224.171 29.4345 222.744 33.2739C220.893 38.2524 218.356 41.0225 215.164 42.8287C213.666 43.6763 212.098 44.2684 210.623 44.7901C210.277 44.9126 209.937 45.0309 209.6 45.148C208.447 45.5492 207.333 45.9365 206.148 46.4307C203.541 47.5174 201.676 49.4335 199.864 51.3377C199.825 51.3791 199.785 51.4211 199.744 51.4636C198.959 52.2898 197.997 53.3025 197.012 53.9767C195.873 54.7573 193.999 55.5466 191.928 54.5105C190.068 53.5797 189.318 51.7819 189.081 50.329C188.84 48.8488 189.023 47.2442 189.441 45.7493C190.274 42.769 192.266 39.4514 195.414 37.3516C197.947 35.6624 200.283 34.6339 202.189 33.795C202.313 33.7401 202.436 33.6859 202.558 33.6324C204.595 32.7328 205.936 32.0832 207.04 31.0869C207.92 30.2937 208.768 28.7137 208.912 26.8746C209.047 25.1363 208.543 23.348 206.996 21.8939C205.831 20.7992 204.156 20.3887 202.121 20.6911C200.06 20.9973 198 22.0021 196.624 23.1901C195.94 23.7814 195.192 24.6419 194.245 25.7661C194.181 25.8418 194.116 25.9187 194.051 25.9966C193.211 26.994 192.229 28.1608 191.192 29.1523C190.091 30.2042 188.65 31.3391 186.881 31.8394C184.925 32.3926 182.898 32.0789 181.011 30.81C178.071 28.8333 177.405 25.6153 178.05 22.6917C178.667 19.892 180.473 17.1041 182.888 14.7616C187.766 10.0316 195.909 6.35743 205.421 7.72777C210.086 8.39973 215.788 10.597 219.698 14.7574C221.687 16.8745 223.227 19.5221 223.857 22.7094Z" fill="url(#paint1_linear_1423_60242)"/>
<path d="M188.224 65.9565C188.224 67.6751 189.311 68.6974 190.569 68.8609C191.828 69.0244 193.241 68.2202 193.747 66.2229C194.153 64.6242 192.748 63.267 191.392 63.1074C189.947 62.9374 188.224 63.8614 188.224 65.9565Z" fill="url(#paint2_linear_1423_60242)"/>
<path fill-rule="evenodd" clip-rule="evenodd" d="M187.208 61.0679C188.487 60.0811 190.076 59.7194 191.516 59.8888C192.996 60.063 194.367 60.8466 195.3 61.9558C196.275 63.1159 196.91 64.8246 196.429 66.7234C195.611 69.9467 192.96 71.9901 189.956 71.5998C187.191 71.2405 184.997 68.9335 184.997 65.719C184.997 63.7594 185.845 62.1192 187.208 61.0679Z" fill="url(#paint3_linear_1423_60242)"/>
<defs>
<linearGradient id="paint0_linear_1423_60242" x1="171.5" y1="112.916" x2="171.5" y2="278.001" gradientUnits="userSpaceOnUse">
<stop stop-color="white" stop-opacity="0"/>
<stop offset="0.892234" stop-color="white"/>
</linearGradient>
<linearGradient id="paint1_linear_1423_60242" x1="184.061" y1="-3.72757" x2="178.944" y2="53.008" gradientUnits="userSpaceOnUse">
<stop stop-color="#E6E4E4" stop-opacity="0.65"/>
<stop offset="0.668694" stop-color="#E6E4E4"/>
</linearGradient>
<linearGradient id="paint2_linear_1423_60242" x1="187.465" y1="68.862" x2="193.917" y2="68.2435" gradientUnits="userSpaceOnUse">
<stop stop-color="#E6E4E4" stop-opacity="0.65"/>
<stop offset="0.668694" stop-color="#E6E4E4"/>
</linearGradient>
<linearGradient id="paint3_linear_1423_60242" x1="183.455" y1="71.5747" x2="196.852" y2="70.2182" gradientUnits="userSpaceOnUse">
<stop stop-color="#E6E4E4" stop-opacity="0.65"/>
<stop offset="0.668694" stop-color="#E6E4E4"/>
</linearGradient>
</defs>
</svg>
