<svg width="266" height="387" viewBox="0 0 266 387" fill="none" xmlns="http://www.w3.org/2000/svg">
<path d="M219.279 9.60326C223.661 21.0063 207.022 34.6556 197.421 28.4457C189.504 23.3257 187.567 11.9389 193.335 4.42757C199.103 -3.08374 215.27 -0.828485 219.279 9.60326Z" fill="#FFA944"/>
<mask id="mask0_1134_73787" style="mask-type:alpha" maskUnits="userSpaceOnUse" x="5" y="319" width="76" height="68">
<path d="M43.9582 342.434C32.7597 338.751 35.724 319.707 20.4082 319.707C5.34379 319.707 3.14012 340.397 6.57452 355.773C9.55537 369.119 14.7517 378.352 27.1602 384.099C42.7193 391.305 60.9366 379.652 67.1788 372.406C73.4211 365.16 86.7764 347.888 75.9072 340.293C62.2383 330.741 55.1568 346.116 43.9582 342.434Z" fill="#C7F070"/>
</mask>
<g mask="url(#mask0_1134_73787)">
<path d="M43.9582 342.434C32.7597 338.751 35.724 319.707 20.4082 319.707C5.34379 319.707 3.14012 340.397 6.57452 355.773C9.55537 369.119 14.7517 378.352 27.1602 384.099C42.7193 391.305 60.9366 379.652 67.1788 372.406C73.4211 365.16 86.7764 347.888 75.9072 340.293C62.2383 330.741 55.1568 346.116 43.9582 342.434Z" fill="#6BDAD6"/>
<g filter="url(#filter0_f_1134_73787)">
<path d="M52.7774 376.553C54.757 363.535 74.2976 361.775 85.3578 359.707C98.6053 357.229 119.246 349.011 119.761 362.417C120.176 373.184 118.194 374.507 117.342 374.588C135.015 376.776 155.063 385.914 150.934 407.011C147.964 422.187 118.214 405.581 98.1233 399.05C79.6841 393.056 54.2933 388.91 52.7774 376.553Z" fill="#FFAF51"/>
<path d="M50.0822 376.143L50.0259 376.514L50.0715 376.885C50.5707 380.955 53.0285 384.12 56.2454 386.598C59.4436 389.062 63.63 391.039 68.1432 392.739C72.6798 394.448 77.726 395.941 82.7246 397.366C83.6736 397.636 84.6202 397.904 85.562 398.171C89.62 399.32 93.5894 400.443 97.2805 401.643C101.772 403.103 106.77 405.082 111.94 407.129C112.435 407.325 112.932 407.522 113.431 407.719C119.078 409.952 124.88 412.209 130.171 413.784C135.383 415.335 140.486 416.348 144.619 415.79C146.741 415.503 148.774 414.782 150.422 413.354C152.094 411.904 153.142 409.922 153.609 407.535C154.733 401.796 154.233 396.723 152.436 392.322C150.646 387.937 147.636 384.383 143.983 381.554C137.837 376.791 129.726 373.958 121.857 372.521C122.402 370.352 122.671 367.134 122.486 362.312C122.408 360.284 121.94 358.469 121.009 356.935C120.067 355.384 118.746 354.278 117.223 353.538C114.301 352.118 110.622 352.037 107.063 352.393C103.422 352.757 99.4262 353.638 95.6161 354.548C94.6795 354.772 93.7564 354.997 92.8498 355.218C89.9954 355.913 87.3029 356.57 84.8566 357.027C83.732 357.237 82.4827 357.449 81.1476 357.675C76.2064 358.513 70.0878 359.549 64.7458 361.456C57.9821 363.871 51.3083 368.08 50.0822 376.143Z" stroke="#5EDAD5" stroke-width="5.45246"/>
</g>
<g filter="url(#filter1_f_1134_73787)">
<path d="M23.1625 304.224C12.5823 348.994 78.8207 344.807 92.4076 347.218C126.172 353.21 139.293 339.975 137.799 325.982C126.105 324.731 107.941 327.602 93.0706 328.66C69.2217 330.358 28.031 283.623 23.1625 304.224Z" fill="#D4FAF8"/>
<path d="M140.51 325.693L140.276 323.506L138.089 323.272C131.951 322.615 124.249 323.046 116.386 323.739C113.146 324.025 109.896 324.354 106.682 324.678C101.954 325.156 97.3033 325.626 92.8771 325.941C87.7275 326.307 81.2673 324.036 74.0362 320.246C68.0604 317.115 61.9177 313.15 55.9674 309.31C54.793 308.552 53.6261 307.799 52.4695 307.058C45.6141 302.666 38.9229 298.565 33.5605 296.976C30.877 296.181 28.0254 295.854 25.519 296.92C22.8348 298.062 21.2461 300.48 20.5094 303.597C17.7017 315.478 19.9409 324.526 25.5107 331.232C30.9556 337.788 39.2853 341.739 47.9717 344.227C56.7016 346.727 66.138 347.846 74.1476 348.496C77.1698 348.741 80.0204 348.922 82.5529 349.083C83.3767 349.135 84.1667 349.185 84.9181 349.235C88.0439 349.441 90.4082 349.632 91.9313 349.902C109.138 352.956 121.609 351.215 129.709 346.443C137.963 341.581 141.368 333.732 140.51 325.693Z" stroke="#5EDAD5" stroke-width="5.45246"/>
</g>
</g>
<mask id="mask1_1134_73787" style="mask-type:alpha" maskUnits="userSpaceOnUse" x="127" y="198" width="97" height="81">
<path d="M213.901 199.488C187.903 194.103 196.768 224.743 179.021 230.124C166.469 233.93 147.877 211.931 132.894 228.238C124.036 237.879 127.829 250.176 133.899 254.974C144.832 263.614 155.065 259.3 160.03 261.949C164.13 264.137 170.114 271.33 176.289 274.743C184.064 279.04 192.298 279.146 199.211 275.98C213.869 269.265 207.289 255.542 208.779 243.694C210.27 231.846 219.53 230.305 222.672 219.683C224.424 213.762 223.948 201.569 213.901 199.488Z" fill="#C7F070"/>
</mask>
<g mask="url(#mask1_1134_73787)">
<path d="M213.901 199.488C187.903 194.103 196.768 224.743 179.021 230.124C166.469 233.93 147.877 211.931 132.894 228.238C124.036 237.879 127.829 250.176 133.899 254.974C144.832 263.614 155.065 259.3 160.03 261.949C164.13 264.137 170.114 271.33 176.289 274.743C184.064 279.04 192.298 279.146 199.211 275.98C213.869 269.265 207.289 255.542 208.779 243.694C210.27 231.846 219.53 230.305 222.672 219.683C224.424 213.762 223.948 201.569 213.901 199.488Z" fill="#6BDAD6"/>
<g filter="url(#filter2_f_1134_73787)">
<path d="M126.449 272.265C128.429 259.247 147.97 257.487 159.03 255.419C172.277 252.941 192.918 244.723 193.433 258.129C193.847 268.895 191.866 270.219 191.014 270.299C208.687 272.488 228.735 281.626 224.606 302.723C221.636 317.898 191.886 301.293 171.795 294.762C153.356 288.768 127.965 284.622 126.449 272.265Z" fill="#FFA944"/>
<path d="M123.754 271.855L123.698 272.225L123.743 272.597C124.243 276.666 126.7 279.832 129.917 282.31C133.115 284.774 137.302 286.751 141.815 288.451C146.352 290.159 151.398 291.652 156.397 293.077C157.345 293.348 158.292 293.616 159.234 293.883C163.292 295.031 167.261 296.155 170.952 297.355C175.444 298.815 180.442 300.794 185.612 302.841C186.107 303.037 186.604 303.234 187.102 303.431C192.75 305.663 198.552 307.921 203.843 309.495C209.055 311.046 214.157 312.059 218.291 311.501C220.413 311.215 222.446 310.494 224.094 309.066C225.766 307.616 226.814 305.634 227.281 303.247C228.404 297.507 227.905 292.434 226.108 288.034C224.318 283.649 221.307 280.095 217.655 277.265C211.509 272.503 203.398 269.67 195.529 268.233C196.074 266.064 196.343 262.846 196.157 258.024C196.079 255.995 195.612 254.181 194.681 252.647C193.739 251.095 192.418 249.989 190.895 249.249C187.973 247.83 184.294 247.749 180.734 248.105C177.094 248.469 173.098 249.35 169.288 250.26C168.351 250.484 167.428 250.709 166.522 250.93C163.667 251.625 160.975 252.281 158.529 252.739C157.404 252.949 156.155 253.161 154.819 253.387C149.878 254.224 143.76 255.261 138.418 257.168C131.654 259.582 124.98 263.792 123.754 271.855Z" stroke="#5EDAD5" stroke-width="5.45246"/>
</g>
<g filter="url(#filter3_f_1134_73787)">
<path d="M128.451 223.851C159.64 254.001 190.683 214.417 199.731 208.064C222.215 192.277 218.196 177.734 205.95 171.015C198.838 176.928 191.737 188.713 184.865 197.664C173.844 212.019 114.1 209.977 128.451 223.851Z" fill="#D4FAF8"/>
<path d="M207.261 168.625L205.634 167.732L204.207 168.919C200.371 172.108 196.649 176.774 193.119 181.588C191.64 183.605 190.21 185.625 188.802 187.613C186.748 190.515 184.741 193.348 182.703 196.004C181.675 197.342 179.939 198.654 177.458 199.909C175.002 201.151 171.992 202.248 168.611 203.246C162.943 204.919 156.503 206.236 150.257 207.514C149.024 207.766 147.799 208.017 146.588 208.269C139.453 209.752 132.557 211.312 128.388 213.514C126.37 214.58 124.191 216.202 123.638 218.754C123.05 221.471 124.553 223.874 126.556 225.811C134.759 233.741 143.145 237.247 151.317 237.719C159.427 238.187 167.025 235.652 173.692 232.044C180.357 228.437 186.242 223.676 190.969 219.492C192.752 217.914 194.395 216.395 195.846 215.054C196.316 214.619 196.766 214.204 197.194 213.81C198.998 212.153 200.339 210.968 201.297 210.295C212.819 202.205 218.26 193.952 218.588 186.255C218.922 178.425 213.946 172.292 207.261 168.625Z" stroke="#5EDAD5" stroke-width="5.45246"/>
</g>
</g>
<mask id="mask2_1134_73787" style="mask-type:alpha" maskUnits="userSpaceOnUse" x="3" y="170" width="92" height="50">
<path d="M66.3556 203.596C73.6999 203.596 81.5291 213.302 89.3455 208.21C97.1619 203.118 93.7257 192.767 89.3455 184.622C83.9839 174.651 72.8839 168.736 63.2199 171.38C51.5828 174.563 50.7171 186.149 38.7799 187.969C25.9961 189.918 18.1244 169.485 8.15958 177.587C-1.27949 185.262 4.0543 198.782 11.6711 208.21C18.4669 216.621 28.1822 221.464 38.7799 218.823C50.035 216.018 54.5399 203.596 66.3556 203.596Z" fill="#C7F070"/>
</mask>
<g mask="url(#mask2_1134_73787)">
<path d="M66.3556 203.596C73.6999 203.596 81.5291 213.302 89.3455 208.21C97.1619 203.118 93.7257 192.767 89.3455 184.622C83.9839 174.651 72.8839 168.736 63.2199 171.38C51.5828 174.563 50.7171 186.149 38.7799 187.969C25.9961 189.918 18.1244 169.485 8.15958 177.587C-1.27949 185.262 4.0543 198.782 11.6711 208.21C18.4669 216.621 28.1822 221.464 38.7799 218.823C50.035 216.018 54.5399 203.596 66.3556 203.596Z" fill="#6BDAD6"/>
<g filter="url(#filter4_f_1134_73787)">
<path d="M17.3867 176.088C48.576 206.238 79.6185 166.654 88.6663 160.301C111.151 144.514 107.132 129.97 94.8853 123.252C87.7735 129.165 80.6726 140.95 73.8006 149.901C62.7794 164.256 3.03511 162.214 17.3867 176.088Z" fill="#D4FAF8"/>
<path d="M96.1965 120.862L94.5694 119.969L93.1424 121.156C89.3065 124.345 85.5847 129.011 82.0546 133.825C80.5759 135.841 79.1456 137.861 77.7379 139.85C75.6834 142.751 73.677 145.585 71.6382 148.241C70.6108 149.579 68.8745 150.891 66.3935 152.145C63.9371 153.387 60.9278 154.485 57.5466 155.483C51.8781 157.155 45.4384 158.473 39.193 159.751C37.96 160.003 36.7345 160.254 35.524 160.505C28.3889 161.989 21.4924 163.549 17.3234 165.751C15.3059 166.817 13.1268 168.438 12.5738 170.991C11.9851 173.708 13.4886 176.111 15.4919 178.048C23.695 185.978 32.0802 189.484 40.2526 189.956C48.362 190.424 55.9602 187.888 62.6271 184.281C69.2927 180.674 75.1776 175.913 79.9047 171.729C81.6875 170.151 83.3307 168.632 84.7818 167.291C85.2518 166.856 85.7016 166.44 86.1295 166.047C87.9332 164.39 89.2747 163.205 90.2329 162.532C101.755 154.442 107.195 146.189 107.524 138.492C107.858 130.662 102.881 124.529 96.1965 120.862Z" stroke="#5EDAD5" stroke-width="5.45246"/>
</g>
<g filter="url(#filter5_f_1134_73787)">
<path d="M54.5195 223.146C54.3967 196.655 12.8044 221.907 3.7712 225.421C-18.6768 234.155 -25.0125 245.474 -21.9131 252.078C-14.2649 248.633 -3.1236 240.832 6.19569 235.103C21.1418 225.914 54.576 235.336 54.5195 223.146Z" fill="#FFA334"/>
<path d="M-24.3811 253.236L-23.2408 255.666L-20.7936 254.564C-16.776 252.754 -11.9337 249.848 -7.03011 246.752C-5.01027 245.477 -2.98913 244.176 -0.989864 242.889C1.95326 240.995 4.84899 239.131 7.62346 237.425C10.8467 235.444 15.2604 234.366 20.3696 233.781C24.6183 233.295 29.0951 233.171 33.4778 233.05C34.3458 233.026 35.21 233.002 36.068 232.975C41.1092 232.819 46.1051 232.571 49.8539 231.483C51.7499 230.934 53.5965 230.098 54.9886 228.722C56.4667 227.262 57.256 225.364 57.2457 223.134C57.2288 219.484 56.498 216.431 54.9758 214.033C53.4253 211.59 51.1985 210.057 48.6421 209.236C43.7446 207.663 37.5567 208.675 31.7079 210.419C25.7319 212.2 19.5306 214.931 14.3279 217.394C12.2387 218.382 10.3515 219.306 8.69917 220.115C6.10653 221.385 4.09212 222.371 2.78271 222.88C-8.68717 227.343 -16.336 232.573 -20.7355 237.791C-25.1116 242.981 -26.5579 248.598 -24.3811 253.236Z" stroke="#5EDAD5" stroke-width="5.45246"/>
</g>
<g filter="url(#filter6_f_1134_73787)">
<path d="M98.832 174.53C72.6516 178.579 103.791 215.968 108.605 224.38C120.571 245.285 132.704 249.872 138.775 245.828C134.235 238.775 124.868 228.914 117.82 220.547C106.518 207.128 110.879 172.667 98.832 174.53Z" fill="#D4FAF8"/>
<path d="M140.287 248.097L142.521 246.609L141.068 244.353C138.683 240.648 135.09 236.29 131.302 231.899C129.742 230.091 128.156 228.285 126.586 226.498C124.276 223.869 122.004 221.281 119.906 218.79C117.468 215.897 115.748 211.692 114.412 206.725C113.301 202.596 112.515 198.187 111.745 193.871C111.593 193.016 111.441 192.165 111.288 191.32C110.386 186.358 109.4 181.454 107.769 177.908C106.944 176.114 105.844 174.412 104.277 173.239C102.613 171.994 100.619 171.495 98.4153 171.835C94.808 172.393 91.8975 173.569 89.7517 175.429C87.5659 177.325 86.3794 179.755 85.9466 182.404C85.1172 187.481 87.0358 193.45 89.6272 198.976C92.2749 204.622 95.8949 210.35 99.1013 215.13C100.389 217.049 101.583 218.779 102.628 220.293C104.267 222.669 105.541 224.515 106.239 225.734C112.353 236.416 118.659 243.205 124.471 246.782C130.253 250.34 136.022 250.938 140.287 248.097Z" stroke="#5EDAD5" stroke-width="5.45246"/>
</g>
</g>
<mask id="mask3_1134_73787" style="mask-type:alpha" maskUnits="userSpaceOnUse" x="92" y="26" width="88" height="65">
<path d="M176.177 76.3381C167.837 85.885 154.423 74.8535 146.385 77.4142C139.768 79.5221 139.434 84.0131 133.354 87.8412C127.273 91.6693 118.978 92.4159 114.276 85.4161C109.573 78.4163 114.37 72.681 111.017 61.1949C107.251 48.293 89.3123 51.2359 93.1688 35.5691C95.9662 24.2049 113.377 24.2448 121.025 31.2757C128.673 38.3065 127.191 45.9509 135.853 50.4753C144.515 54.9997 153.211 49.9191 162.948 52.0119C175.42 54.6927 184.517 66.7911 176.177 76.3381Z" fill="#6BDAD6"/>
</mask>
<g mask="url(#mask3_1134_73787)">
<path d="M176.177 76.3381C167.837 85.885 154.423 74.8535 146.385 77.4142C139.768 79.5221 139.434 84.0131 133.354 87.8412C127.273 91.6693 118.978 92.4159 114.276 85.4161C109.573 78.4163 114.37 72.681 111.017 61.1949C107.251 48.293 89.3123 51.2359 93.1688 35.5691C95.9662 24.2049 113.377 24.2448 121.025 31.2757C128.673 38.3065 127.191 45.9509 135.853 50.4753C144.515 54.9997 153.211 49.9191 162.948 52.0119C175.42 54.6927 184.517 66.7911 176.177 76.3381Z" fill="#6BDAD6"/>
<g filter="url(#filter7_f_1134_73787)">
<path d="M230.441 30.0747C238.195 40.6638 228.62 52.2131 223.929 59.5368C218.31 68.309 212.517 85.1731 203.125 75.6099C195.582 67.9292 195.775 65.918 196.189 65.4118C184.962 73.0842 167.703 76.9055 155.645 59.2616C146.972 46.5701 174.652 43.1331 190.162 37.3771C204.398 32.0941 221.21 21.8056 230.441 30.0747Z" fill="#FFBC6C"/>
<path d="M232.641 28.4641L232.472 28.2342L232.26 28.0441C226.467 22.8549 218.606 23.8107 211.376 26.0385C207.662 27.1828 203.825 28.7549 200.099 30.3346C199.387 30.6367 198.679 30.9387 197.977 31.2385C194.961 32.5255 192.038 33.773 189.214 34.8211C185.784 36.094 181.721 37.2558 177.47 38.4714C177.067 38.5869 176.661 38.7028 176.255 38.8194C171.633 40.1438 166.851 41.547 162.807 43.1935C158.872 44.7956 155.104 46.827 153.003 49.6809C151.89 51.1927 151.211 52.9788 151.277 55.0021C151.342 56.9845 152.111 58.9221 153.394 60.7998C159.874 70.2808 167.971 74.226 176.119 74.5543C182.756 74.8218 189.188 72.6835 194.572 69.6313C195.674 71.4531 197.684 73.9605 201.18 77.5202C203.9 80.2902 206.894 81.6497 210.06 81.0443C212.987 80.4844 215.288 78.3604 217.063 76.1619C218.888 73.9017 220.531 71.0841 222.012 68.4173C222.385 67.7465 222.746 67.0874 223.099 66.4438C224.195 64.4439 225.208 62.5937 226.225 61.0072C226.681 60.2947 227.21 59.5071 227.781 58.6569C229.939 55.4452 232.697 51.3414 234.39 47.0258C236.604 41.3819 237.261 34.7734 232.641 28.4641Z" stroke="#5EDAD5" stroke-width="5.45246"/>
</g>
</g>
<path d="M136.849 350.581C146.87 356.894 159.856 352.743 166.137 342.701C172.835 331.992 169.564 316.506 158.014 311.392C147.946 306.935 137.236 311.331 131.386 320.659C125.075 330.722 126.798 344.25 136.849 350.581Z" fill="#FFA944"/>
<path d="M92.6792 385.391C96.324 387.687 101.047 386.177 103.331 382.525C105.767 378.63 104.578 372.998 100.377 371.138C96.7152 369.517 92.82 371.115 90.6924 374.508C88.3971 378.168 89.0238 383.088 92.6792 385.391Z" fill="#FFAA42"/>
<path opacity="0.9" d="M25.658 251.652C28.5038 253.444 32.1913 252.266 33.9748 249.414C35.8769 246.373 34.9481 241.976 31.6682 240.523C28.8093 239.258 25.7679 240.506 24.1068 243.155C22.3147 246.012 22.804 249.854 25.658 251.652Z" fill="#FFA332"/>
<g opacity="0.5" filter="url(#filter8_f_1134_73787)">
<path d="M63.1512 78.3499C55.1299 83.1651 64.3808 95.9649 59.3294 97.9628C51.3512 101.118 37.9914 75.6269 24.7111 83.3111C9.29308 92.232 18.068 114.888 29.6563 128.348C45.6008 146.867 69.8582 154.436 84.8885 148.218C98.2252 142.7 100.481 122.61 97.6594 108.724C93.891 90.1751 78.2282 69.299 63.1512 78.3499Z" fill="#76DED8"/>
<path d="M63.1512 78.3499C55.1299 83.1651 64.3808 95.9649 59.3294 97.9628C51.3512 101.118 37.9914 75.6269 24.7111 83.3111C9.29308 92.232 18.068 114.888 29.6563 128.348C45.6008 146.867 69.8582 154.436 84.8885 148.218C98.2252 142.7 100.481 122.61 97.6594 108.724C93.891 90.1751 78.2282 69.299 63.1512 78.3499Z" stroke="#77DFD7"/>
</g>
<path d="M60.0597 76.6453C52.8301 81.5063 62.2219 92.8612 57.6096 94.9663C50.325 98.2912 36.3592 75.4179 24.3729 83.1995C10.4573 92.2337 19.9698 112.722 31.5869 124.567C47.571 140.865 70.7054 146.616 84.4134 140.1C96.5769 134.317 97.5338 115.636 94.0963 102.947C89.5047 85.9987 73.6488 67.5086 60.0597 76.6453Z" fill="white"/>
<path d="M50.0295 105.763C50.0295 105.763 47.4834 101.172 41.8742 102.706C35.5458 104.437 35.0346 111.434 35.0346 111.434" stroke="#49C6C2"/>
<path d="M68.5421 100.887C68.5421 100.887 68.7849 96.0115 74.0946 94.9924C80.0852 93.8426 83.3801 99.473 83.3801 99.473" stroke="#49C6C2"/>
<mask id="mask4_1134_73787" style="mask-type:alpha" maskUnits="userSpaceOnUse" x="198" y="62" width="62" height="74">
<path d="M234.275 127.851C240.106 121.462 238.441 106.285 238.441 106.285C238.441 106.285 244.359 117.099 251.955 115.938C262.02 114.399 259.558 103.138 256.936 91.1407L256.92 91.0678C253.969 77.5725 257.439 69.2312 247.242 64.2593C236.882 59.2074 231.797 67.2011 221.54 72.8377C209.705 79.3415 192.839 83.2963 200.518 94.9769C205.269 102.202 219.406 99.1344 219.406 99.1344C219.406 99.1344 212.133 107.459 208.173 114.219C204.033 121.286 204.991 129.289 212.047 133.448C219.372 137.765 228.543 134.13 234.275 127.851Z" fill="#54D2CD"/>
</mask>
<g mask="url(#mask4_1134_73787)">
<path d="M234.275 127.851C240.106 121.462 238.441 106.285 238.441 106.285C238.441 106.285 244.359 117.099 251.955 115.938C262.02 114.399 259.558 103.138 256.936 91.1407L256.92 91.0678C253.969 77.5725 257.439 69.2312 247.242 64.2593C236.882 59.2074 231.797 67.2011 221.54 72.8377C209.705 79.3415 192.839 83.2963 200.518 94.9769C205.269 102.202 219.406 99.1344 219.406 99.1344C219.406 99.1344 212.133 107.459 208.173 114.219C204.033 121.286 204.991 129.289 212.047 133.448C219.372 137.765 228.543 134.13 234.275 127.851Z" fill="#74DCD9"/>
<g filter="url(#filter9_f_1134_73787)">
<path d="M238.4 70.1289C244.03 63.0909 255.097 52.0819 248.638 41.306C240.404 32.76 222.228 42.2254 207.267 46.8544C190.965 51.898 162.733 54.1495 169.852 67.0393C179.818 85.0853 207.844 73.0548 220.09 65.8354C220.09 65.8354 207.114 75.1435 215.487 85.1414C223.72 94.9719 231.656 78.5589 238.4 70.1289Z" fill="#FFBC6D"/>
<path d="M250.977 39.9045L250.817 39.6381L250.601 39.4145C245.326 33.9394 237.248 34.6204 229.809 36.4961C225.948 37.4694 221.908 38.8594 217.969 40.2652C217.216 40.5336 216.469 40.8022 215.726 41.0691C212.536 42.2156 209.436 43.3295 206.461 44.25C202.846 45.3682 198.611 46.3499 194.192 47.3742C193.771 47.4716 193.349 47.5695 192.925 47.6679C188.115 48.7856 183.148 49.9711 178.895 51.4248C174.741 52.8445 170.781 54.6716 168.38 57.3287C167.119 58.7232 166.221 60.4195 166.033 62.4232C165.846 64.4085 166.385 66.4009 167.465 68.3573C173.298 78.9188 184.378 80.3235 194.57 78.5999C200.144 77.6575 205.762 75.7506 210.734 73.6132C210.275 74.9197 209.974 76.344 209.948 77.8603C209.897 80.845 210.916 83.9291 213.397 86.8918C215.859 89.8307 218.763 91.2886 221.98 90.827C224.902 90.4077 227.409 88.4693 229.448 86.3926C231.543 84.2575 233.534 81.5623 235.357 78.9893C235.813 78.3461 236.256 77.7126 236.69 77.0931C238.044 75.1613 239.302 73.365 240.529 71.832C241.083 71.1396 241.718 70.3781 242.401 69.5582C244.971 66.4766 248.229 62.5701 250.456 58.405C253.344 53.007 254.904 46.458 250.977 39.9045Z" stroke="#70DBD7" stroke-width="5.45246"/>
</g>
<g filter="url(#filter10_f_1134_73787)">
<path d="M210.335 128.53C206.75 122.85 201.905 112.37 191.336 114.322C181.906 118.067 183.153 133.193 181.717 144.879C180.153 157.611 172.393 178.091 184.831 176.186C202.243 173.517 202.317 150.815 200.821 140.419C200.821 140.419 203.698 151.836 214.306 148.344C224.737 144.91 214.628 135.333 210.335 128.53Z" fill="#D4FAF8"/>
<path d="M190.841 111.641L190.579 111.69L190.33 111.788C184.21 114.219 181.925 120.254 180.848 126.131C180.296 129.143 180.014 132.375 179.781 135.499C179.737 136.101 179.694 136.697 179.651 137.289C179.469 139.818 179.294 142.248 179.011 144.546C178.669 147.332 178.014 150.526 177.32 153.904C177.255 154.222 177.189 154.542 177.124 154.863C176.375 158.523 175.614 162.364 175.308 165.778C175.013 169.063 175.067 172.564 176.477 175.181C177.238 176.594 178.399 177.76 180.022 178.43C181.593 179.078 183.368 179.168 185.244 178.88C195.421 177.321 200.381 169.8 202.545 161.923C203.641 157.934 204.074 153.717 204.132 149.826C204.937 150.366 205.848 150.832 206.872 151.169C209.258 151.953 212.028 151.964 215.159 150.933C218.208 149.929 220.486 148.221 221.298 145.549C222.054 143.061 221.266 140.539 220.3 138.523C219.302 136.438 217.826 134.318 216.437 132.409C216.081 131.919 215.731 131.444 215.391 130.982C214.348 129.567 213.401 128.281 212.64 127.075C212.306 126.546 211.94 125.935 211.542 125.27C210.007 122.707 207.988 119.333 205.416 116.67C202.013 113.147 197.289 110.45 190.841 111.641Z" stroke="#70DBD7" stroke-width="5.45246"/>
</g>
</g>
<g opacity="0.5" filter="url(#filter11_f_1134_73787)">
<path d="M129.047 289.366C127.608 270.725 67.8937 238.596 58.2766 243.065C41.1165 251.04 39.2037 322.404 53.9397 331.107C65.6058 337.996 130.487 308.007 129.047 289.366Z" fill="#76DED8"/>
<path d="M129.047 289.366C127.608 270.725 67.8937 238.596 58.2766 243.065C41.1165 251.04 39.2037 322.404 53.9397 331.107C65.6058 337.996 130.487 308.007 129.047 289.366Z" stroke="#77DFD7"/>
</g>
<path d="M128.869 285.993C128.869 268.941 76.8233 235.532 67.7642 238.921C51.5997 244.968 44.85 309.729 57.6392 318.677C67.7642 325.761 128.869 303.045 128.869 285.993Z" fill="white"/>
<path d="M68.1648 294.439C68.1648 294.439 65.9099 282.481 71.5399 280.407C78.2898 277.92 85.2174 289.821 85.2174 289.821" stroke="#49C6C2"/>
<path d="M94.3475 284.315C94.3475 284.315 92.1958 273.084 97.568 271.136C104.009 268.8 110.619 279.977 110.619 279.977" stroke="#49C6C2"/>
<g opacity="0.5" filter="url(#filter12_f_1134_73787)">
<path d="M196.129 173.451C200.947 148.261 180.566 117.336 155.089 120.281C134.281 122.687 120.278 139.717 119.781 160.658C119.24 183.403 136.537 203.52 159.29 203.475C179.458 203.435 192.339 193.261 196.129 173.451Z" fill="#76DED8"/>
<path d="M196.129 173.451C200.947 148.261 180.566 117.336 155.089 120.281C134.281 122.687 120.278 139.717 119.781 160.658C119.24 183.403 136.537 203.52 159.29 203.475C179.458 203.435 192.339 193.261 196.129 173.451Z" stroke="#77DFD7"/>
</g>
<path d="M190.914 157.576C189.136 135.021 164.581 113.466 143.594 121.916C126.453 128.817 118.513 146.573 122.976 164.504C127.823 183.981 147.232 197.06 166.578 191.714C183.727 186.974 192.312 175.313 190.914 157.576Z" fill="white"/>
<path d="M160.059 156.398C160.059 156.398 159.214 161.806 165.805 164.003C173.241 166.482 178.818 160.961 178.818 160.961" stroke="#49C6C2"/>
<path d="M148.815 152.404C148.815 152.404 146.836 157.507 140.032 156.106C132.355 154.524 130.295 146.952 130.295 146.952" stroke="#49C6C2"/>
<defs>
<filter id="filter0_f_1134_73787" x="28.1433" y="330.358" width="147.92" height="107.443" filterUnits="userSpaceOnUse" color-interpolation-filters="sRGB">
<feFlood flood-opacity="0" result="BackgroundImageFix"/>
<feBlend mode="normal" in="SourceGraphic" in2="BackgroundImageFix" result="shape"/>
<feGaussianBlur stdDeviation="9.56506" result="effect1_foregroundBlur_1134_73787"/>
</filter>
<filter id="filter1_f_1134_73787" x="-2.55785" y="274.386" width="165.053" height="98.8928" filterUnits="userSpaceOnUse" color-interpolation-filters="sRGB">
<feFlood flood-opacity="0" result="BackgroundImageFix"/>
<feBlend mode="normal" in="SourceGraphic" in2="BackgroundImageFix" result="shape"/>
<feGaussianBlur stdDeviation="9.56506" result="effect1_foregroundBlur_1134_73787"/>
</filter>
<filter id="filter2_f_1134_73787" x="101.815" y="226.07" width="147.92" height="107.443" filterUnits="userSpaceOnUse" color-interpolation-filters="sRGB">
<feFlood flood-opacity="0" result="BackgroundImageFix"/>
<feBlend mode="normal" in="SourceGraphic" in2="BackgroundImageFix" result="shape"/>
<feGaussianBlur stdDeviation="9.56506" result="effect1_foregroundBlur_1134_73787"/>
</filter>
<filter id="filter3_f_1134_73787" x="101.649" y="145.319" width="138.811" height="114.311" filterUnits="userSpaceOnUse" color-interpolation-filters="sRGB">
<feFlood flood-opacity="0" result="BackgroundImageFix"/>
<feBlend mode="normal" in="SourceGraphic" in2="BackgroundImageFix" result="shape"/>
<feGaussianBlur stdDeviation="9.56506" result="effect1_foregroundBlur_1134_73787"/>
</filter>
<filter id="filter4_f_1134_73787" x="-9.41527" y="97.5559" width="138.811" height="114.312" filterUnits="userSpaceOnUse" color-interpolation-filters="sRGB">
<feFlood flood-opacity="0" result="BackgroundImageFix"/>
<feBlend mode="normal" in="SourceGraphic" in2="BackgroundImageFix" result="shape"/>
<feGaussianBlur stdDeviation="9.56506" result="effect1_foregroundBlur_1134_73787"/>
</filter>
<filter id="filter5_f_1134_73787" x="-43.1133" y="190.729" width="118.086" height="83.5242" filterUnits="userSpaceOnUse" color-interpolation-filters="sRGB">
<feFlood flood-opacity="0" result="BackgroundImageFix"/>
<feBlend mode="normal" in="SourceGraphic" in2="BackgroundImageFix" result="shape"/>
<feGaussianBlur stdDeviation="7.5" result="effect1_foregroundBlur_1134_73787"/>
</filter>
<filter id="filter6_f_1134_73787" x="63.8953" y="149.875" width="101.5" height="121.877" filterUnits="userSpaceOnUse" color-interpolation-filters="sRGB">
<feFlood flood-opacity="0" result="BackgroundImageFix"/>
<feBlend mode="normal" in="SourceGraphic" in2="BackgroundImageFix" result="shape"/>
<feGaussianBlur stdDeviation="9.56506" result="effect1_foregroundBlur_1134_73787"/>
</filter>
<filter id="filter7_f_1134_73787" x="129.417" y="2.38991" width="128.534" height="100.655" filterUnits="userSpaceOnUse" color-interpolation-filters="sRGB">
<feFlood flood-opacity="0" result="BackgroundImageFix"/>
<feBlend mode="normal" in="SourceGraphic" in2="BackgroundImageFix" result="shape"/>
<feGaussianBlur stdDeviation="9.56506" result="effect1_foregroundBlur_1134_73787"/>
</filter>
<filter id="filter8_f_1134_73787" x="0.941406" y="60.6689" width="113.289" height="105.186" filterUnits="userSpaceOnUse" color-interpolation-filters="sRGB">
<feFlood flood-opacity="0" result="BackgroundImageFix"/>
<feBlend mode="normal" in="SourceGraphic" in2="BackgroundImageFix" result="shape"/>
<feGaussianBlur stdDeviation="7.5" result="effect1_foregroundBlur_1134_73787"/>
</filter>
<filter id="filter9_f_1134_73787" x="144.139" y="13.2766" width="131.049" height="99.4922" filterUnits="userSpaceOnUse" color-interpolation-filters="sRGB">
<feFlood flood-opacity="0" result="BackgroundImageFix"/>
<feBlend mode="normal" in="SourceGraphic" in2="BackgroundImageFix" result="shape"/>
<feGaussianBlur stdDeviation="9.56506" result="effect1_foregroundBlur_1134_73787"/>
</filter>
<filter id="filter10_f_1134_73787" x="153.307" y="89.4973" width="90.1489" height="111.395" filterUnits="userSpaceOnUse" color-interpolation-filters="sRGB">
<feFlood flood-opacity="0" result="BackgroundImageFix"/>
<feBlend mode="normal" in="SourceGraphic" in2="BackgroundImageFix" result="shape"/>
<feGaussianBlur stdDeviation="9.56506" result="effect1_foregroundBlur_1134_73787"/>
</filter>
<filter id="filter11_f_1134_73787" x="28.5332" y="227.144" width="116.037" height="120.471" filterUnits="userSpaceOnUse" color-interpolation-filters="sRGB">
<feFlood flood-opacity="0" result="BackgroundImageFix"/>
<feBlend mode="normal" in="SourceGraphic" in2="BackgroundImageFix" result="shape"/>
<feGaussianBlur stdDeviation="7.5" result="effect1_foregroundBlur_1134_73787"/>
</filter>
<filter id="filter12_f_1134_73787" x="104.268" y="104.585" width="108.07" height="114.39" filterUnits="userSpaceOnUse" color-interpolation-filters="sRGB">
<feFlood flood-opacity="0" result="BackgroundImageFix"/>
<feBlend mode="normal" in="SourceGraphic" in2="BackgroundImageFix" result="shape"/>
<feGaussianBlur stdDeviation="7.5" result="effect1_foregroundBlur_1134_73787"/>
</filter>
</defs>
</svg>
