<svg width="44" height="44" viewBox="0 0 44 44" fill="none" xmlns="http://www.w3.org/2000/svg">
<mask id="mask0_1565_3187" style="mask-type:alpha" maskUnits="userSpaceOnUse" x="7" y="6" width="30" height="32">
<path fill-rule="evenodd" clip-rule="evenodd" d="M29.1106 24.0561C29.1106 24.0561 27.4857 29.4216 27.5023 33.232C27.5097 34.9189 27.979 37.0039 29.9318 37.3773C31.8846 37.7506 33.008 37.0013 33.6459 34.6111C34.9217 29.8307 36.95 21.1447 36.9997 14.4427C37.0358 9.56854 34.2545 7.80722 31.629 6.87361C27.6223 5.44884 19.602 5.82671 14.6614 7.57151C11.8045 8.58044 10.1768 10.399 10.8447 13.344C11.3018 15.3599 13.7111 15.6771 15.041 15.4202C16.0253 15.2301 17.1994 14.8109 18.3908 14.3856C21.3173 13.3407 24.3482 12.2586 24.9274 14.4427C25.4212 16.305 21.7555 17.8474 17.8143 19.5058C15.2516 20.584 12.5725 21.7113 10.8447 23.0074C6.45954 26.2967 6.00671 32.3231 8.56804 35.147C12.1477 39.0937 18.8321 39.0694 23.4597 34.2978C26.7673 30.8874 29.1106 24.0561 29.1106 24.0561ZM23.1204 23.4225C21.9713 26.6307 17.1862 32.9657 14.9405 30.2536C12.7292 27.583 19.0028 24.6196 23.1204 23.4225Z" fill="#54D2CD"/>
</mask>
<g mask="url(#mask0_1565_3187)">
<path fill-rule="evenodd" clip-rule="evenodd" d="M29.1106 24.0561C29.1106 24.0561 27.4857 29.4216 27.5023 33.232C27.5097 34.9189 27.979 37.0039 29.9318 37.3773C31.8846 37.7506 33.008 37.0013 33.6459 34.6111C34.9217 29.8307 36.95 21.1447 36.9997 14.4427C37.0358 9.56854 34.2545 7.80722 31.629 6.87361C27.6223 5.44884 19.602 5.82671 14.6614 7.57151C11.8045 8.58044 10.1768 10.399 10.8447 13.344C11.3018 15.3599 13.7111 15.6771 15.041 15.4202C16.0253 15.2301 17.1994 14.8109 18.3908 14.3856C21.3173 13.3407 24.3482 12.2586 24.9274 14.4427C25.4212 16.305 21.7555 17.8474 17.8143 19.5058C15.2516 20.584 12.5725 21.7113 10.8447 23.0074C6.45954 26.2967 6.00671 32.3231 8.56804 35.147C12.1477 39.0937 18.8321 39.0694 23.4597 34.2978C26.7673 30.8874 29.1106 24.0561 29.1106 24.0561ZM23.1204 23.4225C21.9713 26.6307 17.1862 32.9657 14.9405 30.2536C12.7292 27.583 19.0028 24.6196 23.1204 23.4225Z" fill="#54D2CD"/>
<path d="M27.5021 33.2328C27.4855 29.4224 27.5021 28.341 27.5021 28.341C27.5021 28.341 26.767 30.8882 23.4595 34.2986C18.8318 39.0702 12.1475 39.0946 8.56781 35.1478C6.00648 32.3239 6.45931 26.2976 10.8444 23.0082C15.2296 19.7188 25.7421 17.5168 24.9271 14.4435C24.1121 11.3703 18.4429 14.764 15.0407 15.421C13.7108 15.6779 11.3015 15.3607 10.8444 13.3449C10.1766 10.3998 11.8043 8.58125 14.6612 7.57232C19.6018 5.82752 27.6221 5.44965 31.6288 6.87442C34.2542 7.80803 37.0355 9.56935 36.9994 14.4435C36.9498 21.1455 34.9215 29.8315 33.6456 34.6119C33.0077 37.0021 31.8844 37.7514 29.9316 37.3781C27.9788 37.0047 27.5095 34.9197 27.5021 33.2328Z" fill="#54D2CD"/>
<g filter="url(#filter0_f_1565_3187)">
<path d="M26.6028 40.3652C19.3545 50.3092 6.33171 52.2711 4.72467 46.2442C3.11763 40.2173 15.0551 38.8666 14.6338 28.0826C14.3134 19.8843 16.8112 11.4298 25.4119 12.4538C32.9906 13.3561 33.8511 30.4213 26.6028 40.3652Z" fill="#FFA944"/>
</g>
</g>
<defs>
<filter id="filter0_f_1565_3187" x="-0.877485" y="6.91744" width="37.9229" height="48.1886" filterUnits="userSpaceOnUse" color-interpolation-filters="sRGB">
<feFlood flood-opacity="0" result="BackgroundImageFix"/>
<feBlend mode="normal" in="SourceGraphic" in2="BackgroundImageFix" result="shape"/>
<feGaussianBlur stdDeviation="2.72585" result="effect1_foregroundBlur_1565_3187"/>
</filter>
</defs>
</svg>
