<svg width="269" height="304" viewBox="0 0 269 304" fill="none" xmlns="http://www.w3.org/2000/svg">
<mask id="mask0_1043_73791" style="mask-type:alpha" maskUnits="userSpaceOnUse" x="176" y="20" width="92" height="43">
<path d="M266.3 31.8685C260.586 22.0738 227.799 28.9753 227.799 28.9753C227.799 28.9753 232.428 26.4703 232.232 22.7039C231.661 11.7075 174.646 37.0488 176.852 50.6463C179.058 64.2437 243.677 67.2101 240.004 55.7654C237.992 49.4992 222.396 47.9301 222.396 47.9301C222.396 47.9301 274.469 45.8709 266.3 31.8685Z" fill="#5EDAD5"/>
</mask>
<g mask="url(#mask0_1043_73791)">
<path d="M266.3 31.8685C260.586 22.0738 227.799 28.9753 227.799 28.9753C227.799 28.9753 232.428 26.4703 232.232 22.7039C231.661 11.7075 174.646 37.0488 176.852 50.6463C179.058 64.2437 243.677 67.2101 240.004 55.7654C237.992 49.4992 222.396 47.9301 222.396 47.9301C222.396 47.9301 274.469 45.8709 266.3 31.8685Z" fill="#5EDAD5"/>
<g filter="url(#filter0_f_1043_73791)">
<path d="M161.854 40.353C152.07 42.3759 134.691 44.6182 133.561 53.868C135.522 62.4733 158.42 64.0794 175.195 67.3425C193.473 70.8978 220.879 81.0349 222.788 70.2183C225.461 55.0748 191.836 51.0245 175.857 50.4593C175.857 50.4593 193.875 50.0399 192.736 40.4865C191.617 31.0931 173.572 37.9301 161.854 40.353Z" fill="#FFB154"/>
<path d="M130.855 53.5374L130.797 54.0099L130.903 54.4739C131.659 57.7908 134.33 60.0141 137.266 61.5578C140.261 63.1326 144.1 64.3045 148.203 65.2633C152.334 66.2287 156.911 67.0169 161.448 67.7609C162.308 67.902 163.167 68.0415 164.021 68.1803C167.705 68.7786 171.313 69.3646 174.675 70.0186C178.767 70.8145 183.336 71.949 188.056 73.121C188.509 73.2334 188.963 73.3461 189.418 73.459C194.577 74.7376 199.866 76.0236 204.664 76.856C209.399 77.6776 213.958 78.1162 217.56 77.522C219.384 77.2212 221.166 76.625 222.616 75.4998C224.131 74.3238 225.119 72.694 225.473 70.6921C226.358 65.6793 224.12 61.6774 220.574 58.7261C217.126 55.8574 212.257 53.7848 207.09 52.2575C202.079 50.7765 196.539 49.7385 191.239 49.0286C191.647 48.741 192.038 48.4311 192.408 48.0972C194.484 46.2192 195.849 43.5653 195.443 40.164C195.248 38.5225 194.654 37.0617 193.614 35.8818C192.587 34.7172 191.275 33.9945 189.908 33.5625C187.274 32.7301 184.044 32.8569 180.9 33.2876C177.683 33.7284 174.169 34.5491 170.808 35.3851C169.984 35.5899 169.172 35.795 168.373 35.9967C165.855 36.6327 163.472 37.2345 161.302 37.6833C160.301 37.8902 159.19 38.1041 158.005 38.3324C153.631 39.175 148.238 40.2137 143.573 41.8232C140.586 42.8538 137.673 44.1867 135.386 46.0042C133.063 47.8501 131.248 50.3161 130.855 53.5374Z" stroke="#C8F58F" stroke-width="5.45246"/>
</g>
</g>
<mask id="mask1_1043_73791" style="mask-type:alpha" maskUnits="userSpaceOnUse" x="2" y="222" width="129" height="76">
<path d="M43.4293 293.937C36.4273 280.556 70.149 268.462 70.149 268.462C70.149 268.462 4.41632 284.914 2.41247 269.437C-0.392947 247.769 47.5959 244.215 70.3122 244.456C70.3122 244.456 44.7666 242.685 47.0057 229.2C49.2073 215.941 74.3722 226.822 90.8467 231.026C104.601 234.536 129.121 238.853 130.121 252.055C131.121 265.257 116.312 272.656 95.2614 282.022C77.7888 289.796 48.6873 303.986 43.4293 293.937Z" fill="#C7F070"/>
</mask>
<g mask="url(#mask1_1043_73791)">
<path d="M43.4293 293.937C36.4273 280.556 70.149 268.462 70.149 268.462C70.149 268.462 4.41632 284.914 2.41247 269.437C-0.392947 247.769 47.5959 244.215 70.3122 244.456C70.3122 244.456 44.7666 242.685 47.0057 229.2C49.2073 215.941 74.3722 226.822 90.8467 231.026C104.601 234.536 129.121 238.853 130.121 252.055C131.121 265.257 116.312 272.656 95.2614 282.022C77.7888 289.796 48.6873 303.986 43.4293 293.937Z" fill="#C7F070"/>
<g filter="url(#filter1_f_1043_73791)">
<path d="M76.1025 301.571C72.2715 284.265 117.231 257.407 117.231 257.407C117.231 257.407 109.26 259.441 105.489 254.91C94.4802 241.68 186.814 210.288 198.706 228.237C210.598 246.187 139.564 318.142 131.641 301.107C127.302 291.78 143.541 273.434 143.541 273.434C143.541 273.434 81.5792 326.311 76.1025 301.571Z" fill="#FFB053"/>
<path d="M129.059 292.063C129.603 290.256 130.364 288.437 131.235 286.677C125.974 290.629 119.709 295.092 113.322 299.091C105.2 304.176 96.6087 308.685 89.5479 310.271C86.0279 311.062 82.502 311.219 79.5266 309.982C76.3522 308.663 74.2834 305.967 73.4407 302.16C72.2125 296.612 74.9472 290.831 78.7237 285.744C82.5911 280.535 88.0448 275.393 93.4952 270.896C98.7884 266.529 104.181 262.688 108.33 259.89C106.569 259.328 104.799 258.342 103.394 256.654C102.28 255.316 101.74 253.725 101.873 252.02C102 250.405 102.71 248.928 103.629 247.643C105.442 245.108 108.564 242.637 112.301 240.32C119.861 235.632 130.979 230.946 142.696 227.279C154.423 223.61 166.962 220.894 177.408 220.251C182.622 219.93 187.449 220.116 191.443 221.03C195.388 221.933 198.935 223.646 200.979 226.732C203.06 229.873 203.114 233.85 202.224 237.818C201.322 241.836 199.352 246.317 196.729 250.937C191.473 260.197 183.304 270.521 174.577 279.673C165.858 288.816 156.422 296.958 148.555 301.759C144.663 304.134 140.899 305.853 137.66 306.304C136.014 306.532 134.315 306.461 132.765 305.803C131.148 305.117 129.928 303.89 129.169 302.257C127.669 299.033 128.07 295.35 129.059 292.063Z" stroke="#C8F58F" stroke-width="5.45246"/>
</g>
</g>
<path d="M85.9998 85.5L86.4534 85.8926L85.9998 85.5ZM144.102 153.788L144.296 153.22L144.102 153.788ZM232 217.5L231.448 217.265L232 217.5ZM169.48 162.431L169.301 163.004L169.48 162.431ZM119.742 144.656L119.511 145.21L119.742 144.656ZM151.021 248.86C151.352 248.843 151.607 248.561 151.59 248.23C151.573 247.9 151.291 247.645 150.96 247.662L151.021 248.86ZM167.299 246.307C166.97 246.346 166.734 246.643 166.772 246.972C166.81 247.302 167.108 247.538 167.437 247.5L167.299 246.307ZM183.695 245.015C184.02 244.952 184.232 244.637 184.169 244.312C184.106 243.986 183.791 243.774 183.466 243.837L183.695 245.015ZM199.327 239.908C199.01 240.007 198.834 240.343 198.932 240.659C199.031 240.976 199.367 241.152 199.684 241.054L199.327 239.908ZM214.972 234.847C215.265 234.691 215.376 234.328 215.221 234.035C215.065 233.743 214.702 233.631 214.409 233.787L214.972 234.847ZM227.198 224.025C226.982 224.276 227.012 224.655 227.264 224.87C227.515 225.086 227.894 225.056 228.11 224.805L227.198 224.025ZM234.747 210.056C234.792 209.727 234.563 209.425 234.234 209.38C233.906 209.335 233.604 209.564 233.559 209.893L234.747 210.056ZM230.297 195.328C230.475 195.608 230.846 195.691 231.125 195.513C231.405 195.336 231.488 194.965 231.31 194.685L230.297 195.328ZM220.081 183.539C219.811 183.348 219.436 183.412 219.245 183.682C219.054 183.953 219.118 184.327 219.388 184.519L220.081 183.539ZM205.893 176.752C206.191 176.896 206.55 176.771 206.694 176.473C206.838 176.174 206.713 175.815 206.414 175.671L205.893 176.752ZM191.957 169.498C191.647 169.379 191.3 169.534 191.182 169.843C191.063 170.153 191.218 170.5 191.527 170.618L191.957 169.498ZM176.766 165.396C177.081 165.5 177.42 165.329 177.524 165.014C177.628 164.699 177.457 164.36 177.142 164.257L176.766 165.396ZM163.297 159.791C162.983 159.685 162.643 159.854 162.537 160.169C162.432 160.483 162.601 160.823 162.915 160.928L163.297 159.791ZM150.238 156.548C150.55 156.657 150.893 156.492 151.002 156.18C151.111 155.867 150.946 155.525 150.633 155.415L150.238 156.548ZM138.154 151.093C137.842 150.983 137.499 151.147 137.389 151.46C137.279 151.772 137.443 152.115 137.755 152.225L138.154 151.093ZM125.547 147.665C125.855 147.787 126.204 147.637 126.326 147.329C126.448 147.021 126.298 146.672 125.99 146.55L125.547 147.665ZM113.615 141.328C113.314 141.19 112.958 141.322 112.82 141.623C112.682 141.924 112.814 142.281 113.115 142.419L113.615 141.328ZM100.711 136.03C100.997 136.197 101.364 136.101 101.531 135.815C101.698 135.529 101.602 135.161 101.316 134.994L100.711 136.03ZM89.9715 127.149C89.7177 126.936 89.3392 126.969 89.1262 127.223C88.9131 127.477 88.9461 127.855 89.1999 128.068L89.9715 127.149ZM79.9036 117.55C80.0722 117.835 80.4402 117.93 80.7254 117.761C81.0107 117.592 81.1052 117.225 80.9365 116.939L79.9036 117.55ZM77.7018 104.024C77.7266 103.694 77.4787 103.406 77.1483 103.381C76.8178 103.357 76.5299 103.605 76.5052 103.935L77.7018 104.024ZM81.3014 90.7346C81.1225 91.0135 81.2036 91.3847 81.4825 91.5636C81.7614 91.7425 82.1325 91.6615 82.3115 91.3826L81.3014 90.7346ZM91.4105 81.3265C91.6735 81.1249 91.7232 80.7482 91.5217 80.4852C91.3201 80.2222 90.9434 80.1725 90.6804 80.3741L91.4105 81.3265ZM102.523 73.1642C102.227 73.3134 102.108 73.6742 102.258 73.9701C102.407 74.266 102.768 74.3849 103.063 74.2357L102.523 73.1642ZM115.604 68.6778C115.912 68.5561 116.064 68.2076 115.942 67.8994C115.82 67.5912 115.472 67.4399 115.164 67.5616L115.604 68.6778ZM128.157 62.8835C127.842 62.9874 127.671 63.3267 127.775 63.6413C127.879 63.956 128.218 64.1269 128.533 64.023L128.157 62.8835ZM141.674 60.0005C141.992 59.91 142.177 59.5781 142.087 59.2594C141.996 58.9406 141.664 58.7557 141.346 58.8463L141.674 60.0005ZM154.699 55.3163C154.377 55.3951 154.18 55.7198 154.258 56.0417C154.337 56.3636 154.662 56.5607 154.984 56.482L154.699 55.3163ZM142.828 248.517C142.828 249.117 142.828 249.117 142.828 249.117C142.828 249.117 142.828 249.117 142.828 249.117C142.828 249.117 142.828 249.117 142.829 249.117C142.829 249.117 142.83 249.117 142.83 249.117C142.832 249.117 142.834 249.117 142.838 249.117C142.844 249.117 142.853 249.117 142.865 249.117C142.89 249.117 142.926 249.117 142.974 249.116C143.07 249.116 143.212 249.115 143.398 249.113C143.77 249.109 144.319 249.101 145.025 249.085C146.438 249.053 148.485 248.988 151.021 248.86L150.96 247.662C148.436 247.789 146.401 247.853 144.998 247.885C144.296 247.901 143.753 247.909 143.385 247.913C143.201 247.915 143.061 247.916 142.968 247.916C142.921 247.917 142.886 247.917 142.862 247.917C142.851 247.917 142.842 247.917 142.836 247.917C142.833 247.917 142.831 247.917 142.83 247.917C142.829 247.917 142.828 247.917 142.828 247.917C142.828 247.917 142.828 247.917 142.828 247.917C142.828 247.917 142.828 247.917 142.828 247.917C142.828 247.917 142.828 247.917 142.828 248.517ZM167.437 247.5C172.523 246.911 178.058 246.109 183.695 245.015L183.466 243.837C177.865 244.924 172.361 245.722 167.299 246.307L167.437 247.5ZM199.684 241.054C205.102 239.366 210.309 237.323 214.972 234.847L214.409 233.787C209.829 236.22 204.694 238.237 199.327 239.908L199.684 241.054ZM228.11 224.805C229.953 222.649 231.46 220.298 232.552 217.735L231.448 217.265C230.409 219.704 228.971 221.952 227.198 224.025L228.11 224.805ZM232.552 217.735C233.684 215.077 234.409 212.52 234.747 210.056L233.559 209.893C233.237 212.238 232.543 214.692 231.448 217.265L232.552 217.735ZM231.31 194.685C228.758 190.664 224.941 186.976 220.081 183.539L219.388 184.519C224.167 187.899 227.854 191.48 230.297 195.328L231.31 194.685ZM206.414 175.671C202.003 173.542 197.163 171.492 191.957 169.498L191.527 170.618C196.71 172.604 201.518 174.641 205.893 176.752L206.414 175.671ZM177.142 164.257C174.702 163.452 172.206 162.653 169.659 161.859L169.301 163.004C171.843 163.797 174.333 164.594 176.766 165.396L177.142 164.257ZM169.659 161.859C167.6 161.216 165.468 160.519 163.297 159.791L162.915 160.928C165.091 161.659 167.232 162.358 169.301 163.004L169.659 161.859ZM150.633 155.415C148.477 154.662 146.353 153.923 144.296 153.22L143.908 154.355C145.961 155.057 148.082 155.795 150.238 156.548L150.633 155.415ZM144.296 153.22C142.14 152.483 140.122 151.787 138.154 151.093L137.755 152.225C139.728 152.921 141.75 153.618 143.908 154.355L144.296 153.22ZM125.99 146.55C124.107 145.803 122.121 144.996 119.972 144.102L119.511 145.21C121.666 146.106 123.658 146.916 125.547 147.665L125.99 146.55ZM119.972 144.102C117.78 143.19 115.66 142.265 113.615 141.328L113.115 142.419C115.174 143.363 117.307 144.293 119.511 145.21L119.972 144.102ZM101.316 134.994C96.9801 132.46 93.1826 129.845 89.9715 127.149L89.1999 128.068C92.4735 130.817 96.3294 133.47 100.711 136.03L101.316 134.994ZM80.9365 116.939C78.4875 112.797 77.3673 108.498 77.7018 104.024L76.5052 103.935C76.1502 108.682 77.3456 113.224 79.9036 117.55L80.9365 116.939ZM82.3115 91.3826C83.466 89.5828 84.8435 87.7528 86.4534 85.8926L85.5461 85.1074C83.9032 87.0056 82.4904 88.8812 81.3014 90.7346L82.3115 91.3826ZM86.4534 85.8926C87.8007 84.3359 89.4726 82.8119 91.4105 81.3265L90.6804 80.3741C88.6951 81.896 86.9591 83.4747 85.5461 85.1074L86.4534 85.8926ZM103.063 74.2357C106.987 72.258 111.24 70.4003 115.604 68.6778L115.164 67.5616C110.774 69.294 106.487 71.1663 102.523 73.1642L103.063 74.2357ZM128.533 64.023C133.117 62.5098 137.582 61.1633 141.674 60.0005L141.346 58.8463C137.241 60.0128 132.759 61.3642 128.157 62.8835L128.533 64.023ZM154.984 56.482C157.056 55.9752 158.722 55.5877 159.87 55.327C160.443 55.1967 160.887 55.0981 161.188 55.0321C161.338 54.9991 161.452 54.9743 161.529 54.9577C161.567 54.9495 161.596 54.9433 161.615 54.9391C161.625 54.9371 161.632 54.9355 161.637 54.9345C161.639 54.934 161.641 54.9336 161.642 54.9334C161.643 54.9333 161.643 54.9332 161.643 54.9331C161.643 54.9331 161.643 54.9331 161.643 54.9331C161.644 54.9331 161.644 54.9331 161.644 54.933C161.644 54.933 161.644 54.933 161.519 54.3462C161.394 53.7593 161.394 53.7593 161.394 53.7593C161.394 53.7594 161.394 53.7594 161.394 53.7594C161.393 53.7594 161.393 53.7594 161.393 53.7595C161.393 53.7595 161.392 53.7596 161.392 53.7598C161.39 53.7601 161.388 53.7605 161.386 53.761C161.381 53.7621 161.373 53.7637 161.363 53.7658C161.344 53.7701 161.314 53.7764 161.275 53.7848C161.197 53.8016 161.082 53.8267 160.93 53.86C160.627 53.9266 160.18 54.0258 159.604 54.1568C158.45 54.4188 156.778 54.8078 154.699 55.3163L154.984 56.482Z" fill="url(#paint0_linear_1043_73791)"/>
<g filter="url(#filter2_d_1043_73791)">
<ellipse cx="144.7" cy="154.016" rx="5.35579" ry="5.37295" transform="rotate(93.7825 144.7 154.016)" fill="url(#paint1_linear_1043_73791)"/>
</g>
<path fill-rule="evenodd" clip-rule="evenodd" d="M146.063 140.859C149.957 140.107 156.12 132.172 160.074 120.672C167.688 98.5309 157.129 89.2551 143.916 89.6039C129.382 89.9877 121.032 103.868 128.495 121.506C133.085 132.355 139.459 142.133 146.063 140.859ZM145.086 112.622C148.463 112.16 150.961 108.919 150.666 105.384C150.37 101.848 147.393 99.3569 144.016 99.8192C140.64 100.282 138.141 103.522 138.437 107.058C138.732 110.593 141.709 113.084 145.086 112.622Z" fill="url(#paint2_linear_1043_73791)"/>
<defs>
<filter id="filter0_f_1043_73791" x="108.903" y="11.0933" width="138.622" height="88.5591" filterUnits="userSpaceOnUse" color-interpolation-filters="sRGB">
<feFlood flood-opacity="0" result="BackgroundImageFix"/>
<feBlend mode="normal" in="SourceGraphic" in2="BackgroundImageFix" result="shape"/>
<feGaussianBlur stdDeviation="9.56506" result="effect1_foregroundBlur_1043_73791"/>
</filter>
<filter id="filter1_f_1043_73791" x="39.8078" y="186.77" width="196.296" height="157.452" filterUnits="userSpaceOnUse" color-interpolation-filters="sRGB">
<feFlood flood-opacity="0" result="BackgroundImageFix"/>
<feBlend mode="normal" in="SourceGraphic" in2="BackgroundImageFix" result="shape"/>
<feGaussianBlur stdDeviation="15.3041" result="effect1_foregroundBlur_1043_73791"/>
</filter>
<filter id="filter2_d_1043_73791" x="124.326" y="133.66" width="40.7461" height="40.7122" filterUnits="userSpaceOnUse" color-interpolation-filters="sRGB">
<feFlood flood-opacity="0" result="BackgroundImageFix"/>
<feColorMatrix in="SourceAlpha" type="matrix" values="0 0 0 0 0 0 0 0 0 0 0 0 0 0 0 0 0 0 127 0" result="hardAlpha"/>
<feMorphology radius="8" operator="dilate" in="SourceAlpha" result="effect1_dropShadow_1043_73791"/>
<feOffset/>
<feGaussianBlur stdDeviation="3.5"/>
<feComposite in2="hardAlpha" operator="out"/>
<feColorMatrix type="matrix" values="0 0 0 0 1 0 0 0 0 1 0 0 0 0 1 0 0 0 1 0"/>
<feBlend mode="normal" in2="BackgroundImageFix" result="effect1_dropShadow_1043_73791"/>
<feBlend mode="normal" in="SourceGraphic" in2="effect1_dropShadow_1043_73791" result="shape"/>
</filter>
<linearGradient id="paint0_linear_1043_73791" x1="156.567" y1="54.3462" x2="156.567" y2="248.517" gradientUnits="userSpaceOnUse">
<stop stop-color="#F8BA5D"/>
<stop offset="0.508892" stop-color="#FFA840"/>
<stop offset="1" stop-color="#F8B859"/>
</linearGradient>
<linearGradient id="paint1_linear_1043_73791" x1="149.653" y1="153.388" x2="139.675" y2="154.048" gradientUnits="userSpaceOnUse">
<stop offset="0.0469341" stop-color="#FF9412"/>
<stop offset="1" stop-color="#FF9C24"/>
</linearGradient>
<linearGradient id="paint2_linear_1043_73791" x1="144.155" y1="89.6067" x2="144.155" y2="140.984" gradientUnits="userSpaceOnUse">
<stop offset="0.238251" stop-color="#FFA941"/>
<stop offset="0.772962" stop-color="#FF9B23"/>
</linearGradient>
</defs>
</svg>
